<?xml version="1.0" encoding="UTF-8" standalone="no"?>
<!DOCTYPE svg PUBLIC "-//W3C//DTD SVG 1.1//EN"
 "http://www.w3.org/Graphics/SVG/1.1/DTD/svg11.dtd">
<!-- Generated by graphviz version 2.43.0 (0)
 -->
<!-- Title: DockerDeps Pages: 1 -->
<svg width="580pt" height="590pt"
 viewBox="0.00 0.00 580.00 590.00" xmlns="http://www.w3.org/2000/svg" xmlns:xlink="http://www.w3.org/1999/xlink">
<g id="graph0" class="graph" transform="scale(1 1) rotate(0) translate(4 586)">
<title>DockerDeps</title>
<polygon fill="white" stroke="transparent" points="-4,4 -4,-586 576,-586 576,4 -4,4"/>
<g id="clust1" class="cluster">
<title>clusterDockerfile</title>
<polygon fill="none" stroke="royalblue" points="230,-116 230,-503 410,-503 410,-116 230,-116"/>
<text text-anchor="middle" x="320" y="-487.8" font-family="Times,serif" font-size="14.00">docker/&lt;distro&gt;/Dockerfile</text>
</g>
<g id="clust2" class="cluster">
<title>clusterCache</title>
<polygon fill="none" stroke="royalblue" points="8,-8 8,-83 485,-83 485,-8 8,-8"/>
<text text-anchor="middle" x="246.5" y="-67.8" font-family="Times,serif" font-size="14.00">cache/&lt;distro&gt;/</text>
</g>
<!-- DISTRO_IMG -->
<g id="node1" class="node">
<title>DISTRO_IMG</title>
<path fill="royalblue" stroke="black" d="M305,-577.73C305,-579.53 283.49,-581 257,-581 230.51,-581 209,-579.53 209,-577.73 209,-577.73 209,-548.27 209,-548.27 209,-546.47 230.51,-545 257,-545 283.49,-545 305,-546.47 305,-548.27 305,-548.27 305,-577.73 305,-577.73"/>
<path fill="none" stroke="black" d="M305,-577.73C305,-575.92 283.49,-574.45 257,-574.45 230.51,-574.45 209,-575.92 209,-577.73"/>
<text text-anchor="middle" x="257" y="-559.3" font-family="Times,serif" font-size="14.00">&lt;distro&gt;:latest</text>
</g>
<!-- ENV_IMG -->
<g id="node4" class="node">
<title>ENV_IMG</title>
<path fill="royalblue" stroke="black" d="M394,-467.35C394,-469.99 359.49,-472.13 317,-472.13 274.51,-472.13 240,-469.99 240,-467.35 240,-467.35 240,-424.4 240,-424.4 240,-421.76 274.51,-419.62 317,-419.62 359.49,-419.62 394,-421.76 394,-424.4 394,-424.4 394,-467.35 394,-467.35"/>
<path fill="none" stroke="black" d="M394,-467.35C394,-464.72 359.49,-462.58 317,-462.58 274.51,-462.58 240,-464.72 240,-467.35"/>
<text text-anchor="middle" x="317" y="-449.68" font-family="Times,serif" font-size="14.00">cmake&#45;cpp:&lt;distro&gt;_env</text>
<text text-anchor="middle" x="317" y="-434.68" font-family="Times,serif" font-size="14.00">env</text>
</g>
<!-- DISTRO_IMG&#45;&gt;ENV_IMG -->
<g id="edge4" class="edge">
<title>DISTRO_IMG&#45;&gt;ENV_IMG</title>
<path fill="none" stroke="black" d="M266.11,-544.51C274.85,-527.75 288.28,-501.98 299.15,-481.12"/>
<polygon fill="black" stroke="black" points="302.27,-482.71 303.79,-472.23 296.06,-479.48 302.27,-482.71"/>
</g>
<!-- PKG -->
<g id="node2" class="node">
<title>PKG</title>
<polygon fill="royalblue" stroke="black" points="430.5,-582 327.5,-582 323.5,-578 323.5,-544 426.5,-544 430.5,-548 430.5,-582"/>
<polyline fill="none" stroke="black" points="426.5,-578 323.5,-578 "/>
<polyline fill="none" stroke="black" points="426.5,-578 426.5,-544 "/>
<polyline fill="none" stroke="black" points="426.5,-578 430.5,-582 "/>
<text text-anchor="middle" x="377" y="-566.8" font-family="Times,serif" font-size="14.00">packages</text>
<text text-anchor="middle" x="377" y="-551.8" font-family="Times,serif" font-size="14.00">e.g. cmake, g++</text>
</g>
<!-- PKG&#45;&gt;ENV_IMG -->
<g id="edge5" class="edge">
<title>PKG&#45;&gt;ENV_IMG</title>
<path fill="none" stroke="black" stroke-dasharray="5,2" d="M367.49,-543.76C358.78,-527.04 345.65,-501.86 334.97,-481.35"/>
<polygon fill="black" stroke="black" points="337.98,-479.56 330.26,-472.31 331.77,-482.79 337.98,-479.56"/>
<text text-anchor="middle" x="374" y="-514.8" font-family="Times,serif" font-size="14.00">install</text>
</g>
<!-- SRC -->
<g id="node3" class="node">
<title>SRC</title>
<polygon fill="royalblue" stroke="black" points="477.5,-463.88 474.5,-467.88 453.5,-467.88 450.5,-463.88 418.5,-463.88 418.5,-427.88 477.5,-427.88 477.5,-463.88"/>
<text text-anchor="middle" x="448" y="-442.18" font-family="Times,serif" font-size="14.00">git repo</text>
</g>
<!-- DEVEL_IMG -->
<g id="node5" class="node">
<title>DEVEL_IMG</title>
<path fill="royalblue" stroke="black" d="M402,-364.1C402,-366.74 365.25,-368.88 320,-368.88 274.75,-368.88 238,-366.74 238,-364.1 238,-364.1 238,-321.15 238,-321.15 238,-318.51 274.75,-316.37 320,-316.37 365.25,-316.37 402,-318.51 402,-321.15 402,-321.15 402,-364.1 402,-364.1"/>
<path fill="none" stroke="black" d="M402,-364.1C402,-361.47 365.25,-359.33 320,-359.33 274.75,-359.33 238,-361.47 238,-364.1"/>
<text text-anchor="middle" x="320" y="-346.43" font-family="Times,serif" font-size="14.00">cmake&#45;cpp:&lt;distro&gt;_devel</text>
<text text-anchor="middle" x="320" y="-331.43" font-family="Times,serif" font-size="14.00">devel</text>
</g>
<!-- SRC&#45;&gt;DEVEL_IMG -->
<g id="edge6" class="edge">
<title>SRC&#45;&gt;DEVEL_IMG</title>
<path fill="none" stroke="black" stroke-dasharray="5,2" d="M426.29,-427.7C408.12,-413.33 381.72,-392.45 359.78,-375.09"/>
<polygon fill="black" stroke="black" points="361.94,-372.33 351.92,-368.87 357.59,-377.82 361.94,-372.33"/>
<text text-anchor="middle" x="404.5" y="-390.55" font-family="Times,serif" font-size="14.00">copy</text>
</g>
<!-- ENV_IMG&#45;&gt;DEVEL_IMG -->
<g id="edge1" class="edge">
<title>ENV_IMG&#45;&gt;DEVEL_IMG</title>
<path fill="none" stroke="black" d="M317.75,-419.59C318.11,-407.38 318.55,-392.54 318.95,-379.22"/>
<polygon fill="black" stroke="black" points="322.45,-379.04 319.25,-368.94 315.46,-378.83 322.45,-379.04"/>
</g>
<!-- ENV_TAR -->
<g id="node8" class="node">
<title>ENV_TAR</title>
<polygon fill="royalblue" stroke="black" points="106.5,-52 15.5,-52 15.5,-16 112.5,-16 112.5,-46 106.5,-52"/>
<polyline fill="none" stroke="black" points="106.5,-52 106.5,-46 "/>
<polyline fill="none" stroke="black" points="112.5,-46 106.5,-46 "/>
<text text-anchor="middle" x="64" y="-30.3" font-family="Times,serif" font-size="14.00">docker_env.tar</text>
</g>
<!-- ENV_IMG&#45;&gt;ENV_TAR -->
<g id="edge7" class="edge">
<title>ENV_IMG&#45;&gt;ENV_TAR</title>
<path fill="none" stroke="red" d="M239.67,-431.93C158.33,-416.07 42,-385.98 42,-343.62 42,-343.62 42,-343.62 42,-149.12 42,-118.85 49.56,-84.87 55.81,-61.92"/>
<polygon fill="red" stroke="red" points="59.2,-62.78 58.56,-52.2 52.47,-60.87 59.2,-62.78"/>
<text text-anchor="middle" x="111.5" y="-249.68" font-family="Times,serif" font-size="14.00">make save_&lt;distro&gt;_env</text>
</g>
<!-- BUILD_IMG -->
<g id="node6" class="node">
<title>BUILD_IMG</title>
<path fill="royalblue" stroke="black" d="M402,-274.85C402,-277.49 365.69,-279.63 321,-279.63 276.31,-279.63 240,-277.49 240,-274.85 240,-274.85 240,-231.9 240,-231.9 240,-229.26 276.31,-227.12 321,-227.12 365.69,-227.12 402,-229.26 402,-231.9 402,-231.9 402,-274.85 402,-274.85"/>
<path fill="none" stroke="black" d="M402,-274.85C402,-272.22 365.69,-270.08 321,-270.08 276.31,-270.08 240,-272.22 240,-274.85"/>
<text text-anchor="middle" x="321" y="-257.18" font-family="Times,serif" font-size="14.00">cmake&#45;cpp:&lt;distro&gt;_build</text>
<text text-anchor="middle" x="321" y="-242.18" font-family="Times,serif" font-size="14.00">build</text>
</g>
<!-- DEVEL_IMG&#45;&gt;BUILD_IMG -->
<g id="edge2" class="edge">
<title>DEVEL_IMG&#45;&gt;BUILD_IMG</title>
<path fill="none" stroke="black" d="M320.29,-316.39C320.38,-308.07 320.49,-298.66 320.59,-289.72"/>
<polygon fill="black" stroke="black" points="324.1,-289.59 320.71,-279.55 317.1,-289.51 324.1,-289.59"/>
</g>
<!-- DEVEL_TAR -->
<g id="node9" class="node">
<title>DEVEL_TAR</title>
<polygon fill="royalblue" stroke="black" points="231.5,-52 130.5,-52 130.5,-16 237.5,-16 237.5,-46 231.5,-52"/>
<polyline fill="none" stroke="black" points="231.5,-52 231.5,-46 "/>
<polyline fill="none" stroke="black" points="237.5,-46 231.5,-46 "/>
<text text-anchor="middle" x="184" y="-30.3" font-family="Times,serif" font-size="14.00">docker_devel.tar</text>
</g>
<!-- DEVEL_IMG&#45;&gt;DEVEL_TAR -->
<g id="edge8" class="edge">
<title>DEVEL_IMG&#45;&gt;DEVEL_TAR</title>
<path fill="none" stroke="red" d="M272.48,-316.32C257.55,-306.47 242.09,-294.03 231,-279.5 181.16,-214.16 179.42,-111.02 181.83,-62.26"/>
<polygon fill="red" stroke="red" points="185.33,-62.36 182.43,-52.17 178.35,-61.95 185.33,-62.36"/>
<text text-anchor="middle" x="270" y="-198.05" font-family="Times,serif" font-size="14.00">make save_&lt;distro&gt;_devel</text>
</g>
<!-- TEST_IMG -->
<g id="node7" class="node">
<title>TEST_IMG</title>
<path fill="royalblue" stroke="black" d="M394.5,-171.6C394.5,-174.24 360.21,-176.38 318,-176.38 275.79,-176.38 241.5,-174.24 241.5,-171.6 241.5,-171.6 241.5,-128.65 241.5,-128.65 241.5,-126.01 275.79,-123.87 318,-123.87 360.21,-123.87 394.5,-126.01 394.5,-128.65 394.5,-128.65 394.5,-171.6 394.5,-171.6"/>
<path fill="none" stroke="black" d="M394.5,-171.6C394.5,-168.97 360.21,-166.83 318,-166.83 275.79,-166.83 241.5,-168.97 241.5,-171.6"/>
<text text-anchor="middle" x="318" y="-153.93" font-family="Times,serif" font-size="14.00">cmake&#45;cpp:&lt;distro&gt;_test</text>
<text text-anchor="middle" x="318" y="-138.93" font-family="Times,serif" font-size="14.00">test</text>
</g>
<!-- BUILD_IMG&#45;&gt;TEST_IMG -->
<g id="edge3" class="edge">
<title>BUILD_IMG&#45;&gt;TEST_IMG</title>
<path fill="none" stroke="black" d="M349.67,-227.2C357.39,-217.37 362.5,-205.72 358,-194.25 356.69,-190.92 354.99,-187.69 353.03,-184.6"/>
<polygon fill="black" stroke="black" points="355.67,-182.27 346.93,-176.28 350.02,-186.41 355.67,-182.27"/>
</g>
<!-- BUILD_TAR -->
<g id="node10" class="node">
<title>BUILD_TAR</title>
<polygon fill="royalblue" stroke="black" points="471,-52 371,-52 371,-16 477,-16 477,-46 471,-52"/>
<polyline fill="none" stroke="black" points="471,-52 471,-46 "/>
<polyline fill="none" stroke="black" points="477,-46 471,-46 "/>
<text text-anchor="middle" x="424" y="-30.3" font-family="Times,serif" font-size="14.00">docker_build.tar</text>
</g>
<!-- BUILD_IMG&#45;&gt;BUILD_TAR -->
<g id="edge9" class="edge">
<title>BUILD_IMG&#45;&gt;BUILD_TAR</title>
<path fill="none" stroke="red" d="M356.15,-227.18C372.71,-213.72 391.52,-195.89 404,-176.25 424.99,-143.22 426.7,-130.12 426,-91 425.83,-81.63 425.51,-71.39 425.17,-62.25"/>
<polygon fill="red" stroke="red" points="428.66,-62.01 424.77,-52.15 421.67,-62.28 428.66,-62.01"/>
<text text-anchor="middle" x="498.5" y="-146.43" font-family="Times,serif" font-size="14.00">make save_&lt;distro&gt;_build</text>
</g>
<!-- TEST_TAR -->
<g id="node11" class="node">
<title>TEST_TAR</title>
<polygon fill="royalblue" stroke="black" points="346.5,-52 255.5,-52 255.5,-16 352.5,-16 352.5,-46 346.5,-52"/>
<polyline fill="none" stroke="black" points="346.5,-52 346.5,-46 "/>
<polyline fill="none" stroke="black" points="352.5,-46 346.5,-46 "/>
<text text-anchor="middle" x="304" y="-30.3" font-family="Times,serif" font-size="14.00">docker_test.tar</text>
</g>
<!-- TEST_IMG&#45;&gt;TEST_TAR -->
<g id="edge10" class="edge">
<title>TEST_IMG&#45;&gt;TEST_TAR</title>
<path fill="none" stroke="red" d="M296.53,-123.56C293.02,-118.08 289.91,-112.09 288,-106 283.48,-91.59 286.67,-75.16 291.35,-61.73"/>
<polygon fill="red" stroke="red" points="294.73,-62.72 295.13,-52.14 288.21,-60.16 294.73,-62.72"/>
<text text-anchor="middle" x="357" y="-94.8" font-family="Times,serif" font-size="14.00">make save_&lt;distro&gt;_test</text>
</g>
</g>
</svg>
